<svg width="139" height="30" viewBox="0 0 139 30" fill="none" xmlns="http://www.w3.org/2000/svg">
<path d="M4.92188 10.5586V17.2852H8.28516C8.74609 17.2852 9.17969 17.1992 9.58594 17.0273C9.99219 16.8477 10.3477 16.6055 10.6523 16.3008C10.957 15.9961 11.1953 15.6406 11.3672 15.2344C11.5469 14.8203 11.6367 14.3828 11.6367 13.9219C11.6367 13.4609 11.5469 13.0273 11.3672 12.6211C11.1953 12.207 10.957 11.8477 10.6523 11.543C10.3477 11.2383 9.99219 11 9.58594 10.8281C9.17969 10.6484 8.74609 10.5586 8.28516 10.5586H4.92188ZM4.92188 24H1.55859V7.19531H8.28516C8.90234 7.19531 9.49609 7.27734 10.0664 7.44141C10.6367 7.59766 11.168 7.82422 11.6602 8.12109C12.1602 8.41016 12.6133 8.76172 13.0195 9.17578C13.4336 9.58203 13.7852 10.0352 14.0742 10.5352C14.3711 11.0352 14.5977 11.5703 14.7539 12.1406C14.918 12.7109 15 13.3047 15 13.9219C15 14.8438 14.8242 15.7148 14.4727 16.5352C14.1211 17.3477 13.6406 18.0586 13.0312 18.668C12.4219 19.2773 11.707 19.7578 10.8867 20.1094C10.0742 20.4609 9.20703 20.6367 8.28516 20.6367H4.92188V24ZM28.7695 17.6133C28.7695 18.5508 28.6016 19.4258 28.2656 20.2383C27.9297 21.043 27.4727 21.7422 26.8945 22.3359C26.3164 22.9219 25.6367 23.3867 24.8555 23.7305C24.082 24.0664 23.25 24.2344 22.3594 24.2344C21.4766 24.2344 20.6445 24.0664 19.8633 23.7305C19.0898 23.3867 18.4102 22.9219 17.8242 22.3359C17.2461 21.7422 16.7891 21.043 16.4531 20.2383C16.1172 19.4258 15.9492 18.5508 15.9492 17.6133C15.9492 16.6602 16.1172 15.7773 16.4531 14.9648C16.7891 14.1523 17.2461 13.4531 17.8242 12.8672C18.4102 12.2734 19.0898 11.8086 19.8633 11.4727C20.6445 11.1367 21.4766 10.9688 22.3594 10.9688C23.25 10.9688 24.082 11.1289 24.8555 11.4492C25.6367 11.7617 26.3164 12.2109 26.8945 12.7969C27.4727 13.375 27.9297 14.0742 28.2656 14.8945C28.6016 15.707 28.7695 16.6133 28.7695 17.6133ZM25.5469 17.6133C25.5469 17.0977 25.4609 16.6328 25.2891 16.2188C25.125 15.7969 24.8984 15.4375 24.6094 15.1406C24.3203 14.8359 23.9805 14.6055 23.5898 14.4492C23.207 14.2852 22.7969 14.2031 22.3594 14.2031C21.9219 14.2031 21.5078 14.2852 21.1172 14.4492C20.7344 14.6055 20.3984 14.8359 20.1094 15.1406C19.8281 15.4375 19.6055 15.7969 19.4414 16.2188C19.2773 16.6328 19.1953 17.0977 19.1953 17.6133C19.1953 18.0977 19.2773 18.5469 19.4414 18.9609C19.6055 19.375 19.8281 19.7344 20.1094 20.0391C20.3984 20.3438 20.7344 20.5859 21.1172 20.7656C21.5078 20.9375 21.9219 21.0234 22.3594 21.0234C22.7969 21.0234 23.207 20.9414 23.5898 20.7773C23.9805 20.6133 24.3203 20.3828 24.6094 20.0859C24.8984 19.7891 25.125 19.4297 25.2891 19.0078C25.4609 18.5859 25.5469 18.1211 25.5469 17.6133ZM33.7383 24H30.5391V11.4492H31.3125L32.3672 12.9375C32.8828 12.4688 33.4688 12.1094 34.125 11.8594C34.7812 11.6016 35.4609 11.4727 36.1641 11.4727H38.9883V14.6602H36.1641C35.8281 14.6602 35.5117 14.7227 35.2148 14.8477C34.918 14.9727 34.6602 15.1445 34.4414 15.3633C34.2227 15.582 34.0508 15.8398 33.9258 16.1367C33.8008 16.4336 33.7383 16.75 33.7383 17.0859V24ZM46.7695 24C45.9961 24 45.2695 23.8555 44.5898 23.5664C43.9102 23.2695 43.3125 22.8672 42.7969 22.3594C42.2891 21.8438 41.8867 21.2461 41.5898 20.5664C41.3008 19.8867 41.1562 19.1602 41.1562 18.3867V14.6602H39.5977V11.4727H41.1562V6.45703H44.3438V11.4727H49.1953V14.6602H44.3438V18.3867C44.3438 18.7227 44.4062 19.0391 44.5312 19.3359C44.6562 19.625 44.8281 19.8789 45.0469 20.0977C45.2656 20.3164 45.5234 20.4922 45.8203 20.625C46.1172 20.75 46.4336 20.8125 46.7695 20.8125H49.1953V24H46.7695ZM63.1523 24H62.3789L61.1367 22.2773C60.832 22.5508 60.5078 22.8086 60.1641 23.0508C59.8281 23.2852 59.4727 23.4922 59.0977 23.6719C58.7227 23.8438 58.3359 23.9805 57.9375 24.082C57.5469 24.1836 57.1484 24.2344 56.7422 24.2344C55.8594 24.2344 55.0273 24.0859 54.2461 23.7891C53.4727 23.4922 52.793 23.0625 52.207 22.5C51.6289 21.9297 51.1719 21.2344 50.8359 20.4141C50.5 19.5938 50.332 18.6602 50.332 17.6133C50.332 16.6367 50.5 15.7422 50.8359 14.9297C51.1719 14.1094 51.6289 13.4062 52.207 12.8203C52.793 12.2344 53.4727 11.7812 54.2461 11.4609C55.0273 11.1328 55.8594 10.9688 56.7422 10.9688C57.1484 10.9688 57.5508 11.0195 57.9492 11.1211C58.3477 11.2227 58.7344 11.3633 59.1094 11.543C59.4844 11.7227 59.8398 11.9336 60.1758 12.1758C60.5195 12.418 60.8398 12.6797 61.1367 12.9609L62.3789 11.4727H63.1523V24ZM59.9297 17.6133C59.9297 17.1758 59.8438 16.7539 59.6719 16.3477C59.5078 15.9336 59.2812 15.5703 58.9922 15.2578C58.7031 14.9375 58.3633 14.6836 57.9727 14.4961C57.5898 14.3008 57.1797 14.2031 56.7422 14.2031C56.3047 14.2031 55.8906 14.2773 55.5 14.4258C55.1172 14.5742 54.7812 14.793 54.4922 15.082C54.2109 15.3711 53.9883 15.7305 53.8242 16.1602C53.6602 16.582 53.5781 17.0664 53.5781 17.6133C53.5781 18.1602 53.6602 18.6484 53.8242 19.0781C53.9883 19.5 54.2109 19.8555 54.4922 20.1445C54.7812 20.4336 55.1172 20.6523 55.5 20.8008C55.8906 20.9492 56.3047 21.0234 56.7422 21.0234C57.1797 21.0234 57.5898 20.9297 57.9727 20.7422C58.3633 20.5469 58.7031 20.293 58.9922 19.9805C59.2812 19.6602 59.5078 19.2969 59.6719 18.8906C59.8438 18.4766 59.9297 18.0508 59.9297 17.6133ZM68.8242 24H65.6016V6.45703H68.8242V24ZM81.5039 17.2852V13.9219C81.5039 13.4609 81.4141 13.0273 81.2344 12.6211C81.0625 12.207 80.8242 11.8477 80.5195 11.543C80.2148 11.2383 79.8555 11 79.4414 10.8281C79.0352 10.6484 78.6016 10.5586 78.1406 10.5586C77.6797 10.5586 77.2422 10.6484 76.8281 10.8281C76.4219 11 76.0664 11.2383 75.7617 11.543C75.457 11.8477 75.2148 12.207 75.0352 12.6211C74.8633 13.0273 74.7773 13.4609 74.7773 13.9219V17.2852H81.5039ZM84.8672 24H81.5039V20.6367H74.7773V24H71.4258V13.9219C71.4258 12.9922 71.6016 12.1211 71.9531 11.3086C72.3047 10.4883 72.7812 9.77344 73.3828 9.16406C73.9922 8.55469 74.7031 8.07422 75.5156 7.72266C76.3359 7.37109 77.2109 7.19531 78.1406 7.19531C79.0703 7.19531 79.9414 7.37109 80.7539 7.72266C81.5742 8.07422 82.2891 8.55469 82.8984 9.16406C83.5078 9.77344 83.9883 10.4883 84.3398 11.3086C84.6914 12.1211 84.8672 12.9922 84.8672 13.9219V24ZM99.457 24H98.6836L97.4414 22.2773C97.1367 22.5508 96.8125 22.8086 96.4688 23.0508C96.1328 23.2852 95.7773 23.4922 95.4023 23.6719C95.0273 23.8438 94.6406 23.9805 94.2422 24.082C93.8516 24.1836 93.4531 24.2344 93.0469 24.2344C92.1641 24.2344 91.332 24.0703 90.5508 23.7422C89.7773 23.4062 89.0977 22.9453 88.5117 22.3594C87.9336 21.7656 87.4766 21.0664 87.1406 20.2617C86.8047 19.4492 86.6367 18.5664 86.6367 17.6133C86.6367 16.668 86.8047 15.7891 87.1406 14.9766C87.4766 14.1641 87.9336 13.4609 88.5117 12.8672C89.0977 12.2734 89.7773 11.8086 90.5508 11.4727C91.332 11.1367 92.1641 10.9688 93.0469 10.9688C93.3281 10.9688 93.6172 10.9922 93.9141 11.0391C94.2188 11.0859 94.5117 11.1641 94.793 11.2734C95.082 11.375 95.3516 11.5117 95.6016 11.6836C95.8516 11.8555 96.0625 12.0664 96.2344 12.3164V6.45703H99.457V24ZM96.2344 17.6133C96.2344 17.1758 96.1484 16.7539 95.9766 16.3477C95.8125 15.9336 95.5859 15.5703 95.2969 15.2578C95.0078 14.9375 94.668 14.6836 94.2773 14.4961C93.8945 14.3008 93.4844 14.2031 93.0469 14.2031C92.6094 14.2031 92.1953 14.2812 91.8047 14.4375C91.4219 14.5938 91.0859 14.8203 90.7969 15.1172C90.5156 15.4062 90.293 15.7617 90.1289 16.1836C89.9648 16.6055 89.8828 17.082 89.8828 17.6133C89.8828 18.0742 89.9648 18.5117 90.1289 18.9258C90.293 19.3398 90.5156 19.7031 90.7969 20.0156C91.0859 20.3281 91.4219 20.5742 91.8047 20.7539C92.1953 20.9336 92.6094 21.0234 93.0469 21.0234C93.4844 21.0234 93.8945 20.9297 94.2773 20.7422C94.668 20.5469 95.0078 20.293 95.2969 19.9805C95.5859 19.6602 95.8125 19.2969 95.9766 18.8906C96.1484 18.4766 96.2344 18.0508 96.2344 17.6133ZM117.867 24H114.68V16.0312C114.68 15.8125 114.637 15.6055 114.551 15.4102C114.473 15.2148 114.359 15.043 114.211 14.8945C114.062 14.7461 113.891 14.6328 113.695 14.5547C113.5 14.4688 113.293 14.4258 113.074 14.4258C112.855 14.4258 112.648 14.4688 112.453 14.5547C112.266 14.6328 112.098 14.7461 111.949 14.8945C111.809 15.043 111.695 15.2148 111.609 15.4102C111.531 15.6055 111.492 15.8125 111.492 16.0312V24H108.293V16.0312C108.293 15.8125 108.25 15.6055 108.164 15.4102C108.086 15.2148 107.973 15.043 107.824 14.8945C107.676 14.7461 107.504 14.6328 107.309 14.5547C107.113 14.4688 106.906 14.4258 106.688 14.4258C106.469 14.4258 106.262 14.4688 106.066 14.5547C105.879 14.6328 105.711 14.7461 105.562 14.8945C105.422 15.043 105.309 15.2148 105.223 15.4102C105.145 15.6055 105.105 15.8125 105.105 16.0312V24H101.906V11.4492H102.68L103.547 12.4102C103.992 12.0352 104.48 11.7461 105.012 11.543C105.551 11.332 106.109 11.2266 106.688 11.2266C107.273 11.2266 107.844 11.3359 108.398 11.5547C108.961 11.7734 109.453 12.1523 109.875 12.6914C110.07 12.4258 110.293 12.1992 110.543 12.0117C110.793 11.8242 111.055 11.6719 111.328 11.5547C111.609 11.4375 111.898 11.3555 112.195 11.3086C112.492 11.2539 112.785 11.2266 113.074 11.2266C113.738 11.2266 114.359 11.3516 114.938 11.6016C115.523 11.8516 116.031 12.1953 116.461 12.6328C116.898 13.0625 117.242 13.5703 117.492 14.1562C117.742 14.7422 117.867 15.3672 117.867 16.0312V24ZM123.984 8.03906C123.984 8.33594 123.926 8.61328 123.809 8.87109C123.699 9.12891 123.547 9.35547 123.352 9.55078C123.156 9.73828 122.926 9.89062 122.66 10.0078C122.402 10.1172 122.125 10.1719 121.828 10.1719C121.531 10.1719 121.25 10.1172 120.984 10.0078C120.727 9.89062 120.5 9.73828 120.305 9.55078C120.117 9.35547 119.965 9.12891 119.848 8.87109C119.738 8.61328 119.684 8.33594 119.684 8.03906C119.684 7.75 119.738 7.47656 119.848 7.21875C119.965 6.95312 120.117 6.72656 120.305 6.53906C120.5 6.34375 120.727 6.19141 120.984 6.08203C121.25 5.96484 121.531 5.90625 121.828 5.90625C122.125 5.90625 122.402 5.96484 122.66 6.08203C122.926 6.19141 123.156 6.34375 123.352 6.53906C123.547 6.72656 123.699 6.95312 123.809 7.21875C123.926 7.47656 123.984 7.75 123.984 8.03906ZM123.434 24H120.211V11.4492H123.434V24ZM129.082 24H125.883V11.4492H126.656L127.711 12.668C128.227 12.1992 128.809 11.8398 129.457 11.5898C130.113 11.332 130.797 11.2031 131.508 11.2031C132.273 11.2031 132.996 11.3516 133.676 11.6484C134.355 11.9375 134.949 12.3398 135.457 12.8555C135.965 13.3633 136.363 13.9609 136.652 14.6484C136.949 15.3281 137.098 16.0547 137.098 16.8281V24H133.898V16.8281C133.898 16.5 133.836 16.1914 133.711 15.9023C133.586 15.6055 133.414 15.3477 133.195 15.1289C132.977 14.9102 132.723 14.7383 132.434 14.6133C132.145 14.4883 131.836 14.4258 131.508 14.4258C131.172 14.4258 130.855 14.4883 130.559 14.6133C130.262 14.7383 130.004 14.9102 129.785 15.1289C129.566 15.3477 129.395 15.6055 129.27 15.9023C129.145 16.1914 129.082 16.5 129.082 16.8281V24Z" fill="white"/>
</svg>
