<svg width="85" height="16" viewBox="0 0 85 16" fill="none" xmlns="http://www.w3.org/2000/svg">
<g clip-path="url(#clip0_201_8)">
<path d="M2.96094 5.7793V9.14258H4.64258C4.87305 9.14258 5.08984 9.09961 5.29297 9.01367C5.49609 8.92383 5.67383 8.80273 5.82617 8.65039C5.97852 8.49805 6.09766 8.32031 6.18359 8.11719C6.27344 7.91016 6.31836 7.69141 6.31836 7.46094C6.31836 7.23047 6.27344 7.01367 6.18359 6.81055C6.09766 6.60352 5.97852 6.42383 5.82617 6.27148C5.67383 6.11914 5.49609 6 5.29297 5.91406C5.08984 5.82422 4.87305 5.7793 4.64258 5.7793H2.96094ZM2.96094 12.5H1.2793V4.09766H4.64258C4.95117 4.09766 5.24805 4.13867 5.5332 4.2207C5.81836 4.29883 6.08398 4.41211 6.33008 4.56055C6.58008 4.70508 6.80664 4.88086 7.00977 5.08789C7.2168 5.29102 7.39258 5.51758 7.53711 5.76758C7.68555 6.01758 7.79883 6.28516 7.87695 6.57031C7.95898 6.85547 8 7.15234 8 7.46094C8 7.92188 7.91211 8.35742 7.73633 8.76758C7.56055 9.17383 7.32031 9.5293 7.01562 9.83398C6.71094 10.1387 6.35352 10.3789 5.94336 10.5547C5.53711 10.7305 5.10352 10.8184 4.64258 10.8184H2.96094V12.5ZM14.8848 9.30664C14.8848 9.77539 14.8008 10.2129 14.6328 10.6191C14.4648 11.0215 14.2363 11.3711 13.9473 11.668C13.6582 11.9609 13.3184 12.1934 12.9277 12.3652C12.541 12.5332 12.125 12.6172 11.6797 12.6172C11.2383 12.6172 10.8223 12.5332 10.4316 12.3652C10.0449 12.1934 9.70508 11.9609 9.41211 11.668C9.12305 11.3711 8.89453 11.0215 8.72656 10.6191C8.55859 10.2129 8.47461 9.77539 8.47461 9.30664C8.47461 8.83008 8.55859 8.38867 8.72656 7.98242C8.89453 7.57617 9.12305 7.22656 9.41211 6.93359C9.70508 6.63672 10.0449 6.4043 10.4316 6.23633C10.8223 6.06836 11.2383 5.98438 11.6797 5.98438C12.125 5.98438 12.541 6.06445 12.9277 6.22461C13.3184 6.38086 13.6582 6.60547 13.9473 6.89844C14.2363 7.1875 14.4648 7.53711 14.6328 7.94727C14.8008 8.35352 14.8848 8.80664 14.8848 9.30664ZM13.2734 9.30664C13.2734 9.04883 13.2305 8.81641 13.1445 8.60938C13.0625 8.39844 12.9492 8.21875 12.8047 8.07031C12.6602 7.91797 12.4902 7.80273 12.2949 7.72461C12.1035 7.64258 11.8984 7.60156 11.6797 7.60156C11.4609 7.60156 11.2539 7.64258 11.0586 7.72461C10.8672 7.80273 10.6992 7.91797 10.5547 8.07031C10.4141 8.21875 10.3027 8.39844 10.2207 8.60938C10.1387 8.81641 10.0977 9.04883 10.0977 9.30664C10.0977 9.54883 10.1387 9.77344 10.2207 9.98047C10.3027 10.1875 10.4141 10.3672 10.5547 10.5195C10.6992 10.6719 10.8672 10.793 11.0586 10.8828C11.2539 10.9688 11.4609 11.0117 11.6797 11.0117C11.8984 11.0117 12.1035 10.9707 12.2949 10.8887C12.4902 10.8066 12.6602 10.6914 12.8047 10.543C12.9492 10.3945 13.0625 10.2148 13.1445 10.0039C13.2305 9.79297 13.2734 9.56055 13.2734 9.30664ZM17.3691 12.5H15.7695V6.22461H16.1562L16.6836 6.96875C16.9414 6.73438 17.2344 6.55469 17.5625 6.42969C17.8906 6.30078 18.2305 6.23633 18.582 6.23633H19.9941V7.83008H18.582C18.4141 7.83008 18.2559 7.86133 18.1074 7.92383C17.959 7.98633 17.8301 8.07227 17.7207 8.18164C17.6113 8.29102 17.5254 8.41992 17.4629 8.56836C17.4004 8.7168 17.3691 8.875 17.3691 9.04297V12.5ZM23.8848 12.5C23.498 12.5 23.1348 12.4277 22.7949 12.2832C22.4551 12.1348 22.1562 11.9336 21.8984 11.6797C21.6445 11.4219 21.4434 11.123 21.2949 10.7832C21.1504 10.4434 21.0781 10.0801 21.0781 9.69336V7.83008H20.2988V6.23633H21.0781V3.72852H22.6719V6.23633H25.0977V7.83008H22.6719V9.69336C22.6719 9.86133 22.7031 10.0195 22.7656 10.168C22.8281 10.3125 22.9141 10.4394 23.0234 10.5488C23.1328 10.6582 23.2617 10.7461 23.4102 10.8125C23.5586 10.875 23.7168 10.9062 23.8848 10.9062H25.0977V12.5H23.8848ZM32.0762 12.5H31.6895L31.0684 11.6387C30.916 11.7754 30.7539 11.9043 30.582 12.0254C30.4141 12.1426 30.2363 12.2461 30.0488 12.3359C29.8613 12.4219 29.668 12.4902 29.4688 12.541C29.2734 12.5918 29.0742 12.6172 28.8711 12.6172C28.4297 12.6172 28.0137 12.543 27.623 12.3945C27.2363 12.2461 26.8965 12.0312 26.6035 11.75C26.3145 11.4648 26.0859 11.1172 25.918 10.707C25.75 10.2969 25.666 9.83008 25.666 9.30664C25.666 8.81836 25.75 8.37109 25.918 7.96484C26.0859 7.55469 26.3145 7.20312 26.6035 6.91016C26.8965 6.61719 27.2363 6.39062 27.623 6.23047C28.0137 6.06641 28.4297 5.98438 28.8711 5.98438C29.0742 5.98438 29.2754 6.00977 29.4746 6.06055C29.6738 6.11133 29.8672 6.18164 30.0547 6.27148C30.2422 6.36133 30.4199 6.4668 30.5879 6.58789C30.7598 6.70898 30.9199 6.83984 31.0684 6.98047L31.6895 6.23633H32.0762V12.5ZM30.4648 9.30664C30.4648 9.08789 30.4219 8.87695 30.3359 8.67383C30.2539 8.4668 30.1406 8.28516 29.9961 8.12891C29.8516 7.96875 29.6816 7.8418 29.4863 7.74805C29.2949 7.65039 29.0898 7.60156 28.8711 7.60156C28.6523 7.60156 28.4453 7.63867 28.25 7.71289C28.0586 7.78711 27.8906 7.89648 27.7461 8.04102C27.6055 8.18555 27.4941 8.36523 27.4121 8.58008C27.3301 8.79102 27.2891 9.0332 27.2891 9.30664C27.2891 9.58008 27.3301 9.82422 27.4121 10.0391C27.4941 10.25 27.6055 10.4277 27.7461 10.5723C27.8906 10.7168 28.0586 10.8262 28.25 10.9004C28.4453 10.9746 28.6523 11.0117 28.8711 11.0117C29.0898 11.0117 29.2949 10.9648 29.4863 10.8711C29.6816 10.7734 29.8516 10.6465 29.9961 10.4902C30.1406 10.3301 30.2539 10.1484 30.3359 9.94531C30.4219 9.73828 30.4648 9.52539 30.4648 9.30664ZM34.9121 12.5H33.3008V3.72852H34.9121V12.5Z" fill="#531499"/>
<path fill-rule="evenodd" clip-rule="evenodd" d="M40.5 0.5C39.3954 0.5 38.5 1.39543 38.5 2.5V13.5C38.5 14.6046 39.3954 15.5 40.5 15.5H78.5C81.8137 15.5 84.5 12.8137 84.5 9.5V2.5C84.5 1.39543 83.6046 0.5 82.5 0.5H40.5ZM41.2793 12.5H42.9609V4.09766H41.2793V12.5ZM50.7422 12.5H52.3359V8.51562C52.3359 8.18359 52.2734 7.87109 52.1484 7.57812C52.0234 7.28516 51.8516 7.03125 51.6328 6.81641C51.418 6.59766 51.1641 6.42578 50.8711 6.30078C50.582 6.17578 50.2715 6.11328 49.9395 6.11328C49.7949 6.11328 49.6484 6.12695 49.5 6.1543C49.3516 6.17773 49.207 6.21875 49.0664 6.27734C48.9297 6.33594 48.7988 6.41211 48.6738 6.50586C48.5488 6.59961 48.4375 6.71289 48.3398 6.8457C48.1289 6.57617 47.8828 6.38672 47.6016 6.27734C47.3242 6.16797 47.0391 6.11328 46.7461 6.11328C46.457 6.11328 46.1777 6.16602 45.9082 6.27148C45.6426 6.37305 45.3984 6.51758 45.1758 6.70508L44.7422 6.22461H44.3555V12.5H45.9551V8.51562C45.9551 8.40625 45.9746 8.30273 46.0137 8.20508C46.0566 8.10742 46.1133 8.02148 46.1836 7.94727C46.2578 7.87305 46.3418 7.81641 46.4355 7.77734C46.5332 7.73438 46.6367 7.71289 46.7461 7.71289C46.8555 7.71289 46.959 7.73438 47.0566 7.77734C47.1543 7.81641 47.2402 7.87305 47.3145 7.94727C47.3887 8.02148 47.4453 8.10742 47.4844 8.20508C47.5273 8.30273 47.5488 8.40625 47.5488 8.51562V12.5H49.1484V8.51562C49.1484 8.40625 49.168 8.30273 49.207 8.20508C49.25 8.10742 49.3066 8.02148 49.377 7.94727C49.4512 7.87305 49.5352 7.81641 49.6289 7.77734C49.7266 7.73438 49.8301 7.71289 49.9395 7.71289C50.0488 7.71289 50.1523 7.73438 50.25 7.77734C50.3477 7.81641 50.4336 7.87305 50.5078 7.94727C50.582 8.02148 50.6387 8.10742 50.6777 8.20508C50.7207 8.30273 50.7422 8.40625 50.7422 8.51562V12.5ZM59.3203 10.6191C59.4883 10.2129 59.5723 9.77539 59.5723 9.30664C59.5723 8.80664 59.4883 8.35352 59.3203 7.94727C59.1523 7.53711 58.9238 7.1875 58.6348 6.89844C58.3457 6.60547 58.0059 6.38086 57.6152 6.22461C57.2285 6.06445 56.8125 5.98438 56.3672 5.98438C55.9258 5.98438 55.5098 6.06836 55.1191 6.23633C54.7324 6.4043 54.3926 6.63672 54.0996 6.93359C53.8105 7.22656 53.582 7.57617 53.4141 7.98242C53.2461 8.38867 53.1621 8.83008 53.1621 9.30664C53.1621 9.77539 53.2461 10.2129 53.4141 10.6191C53.582 11.0215 53.8105 11.3711 54.0996 11.668C54.3926 11.9609 54.7324 12.1934 55.1191 12.3652C55.5098 12.5332 55.9258 12.6172 56.3672 12.6172C56.8125 12.6172 57.2285 12.5332 57.6152 12.3652C58.0059 12.1934 58.3457 11.9609 58.6348 11.668C58.9238 11.3711 59.1523 11.0215 59.3203 10.6191ZM57.832 8.60938C57.918 8.81641 57.9609 9.04883 57.9609 9.30664C57.9609 9.56055 57.918 9.79297 57.832 10.0039C57.75 10.2148 57.6367 10.3945 57.4922 10.543C57.3477 10.6914 57.1777 10.8066 56.9824 10.8887C56.791 10.9707 56.5859 11.0117 56.3672 11.0117C56.1484 11.0117 55.9414 10.9688 55.7461 10.8828C55.5547 10.793 55.3867 10.6719 55.2422 10.5195C55.1016 10.3672 54.9902 10.1875 54.9082 9.98047C54.8262 9.77344 54.7852 9.54883 54.7852 9.30664C54.7852 9.04883 54.8262 8.81641 54.9082 8.60938C54.9902 8.39844 55.1016 8.21875 55.2422 8.07031C55.3867 7.91797 55.5547 7.80273 55.7461 7.72461C55.9414 7.64258 56.1484 7.60156 56.3672 7.60156C56.5859 7.60156 56.791 7.64258 56.9824 7.72461C57.1777 7.80273 57.3477 7.91797 57.4922 8.07031C57.6367 8.21875 57.75 8.39844 57.832 8.60938ZM55.6816 4.64258L56.3438 5.51562L58.3828 4.24414L57.4219 3.01953L55.6816 4.64258ZM59.8477 6.22461L62.2383 12.5H63.8438L66.2344 6.22461H64.4062L63.041 10.1387L61.6699 6.22461H59.8477ZM69.3398 11.0059C69.2773 10.998 69.2148 10.9844 69.1523 10.9648L72.1523 7.34961C72.0039 7.13867 71.832 6.94922 71.6367 6.78125C71.4414 6.60938 71.2305 6.46484 71.0039 6.34766C70.7812 6.23047 70.5449 6.14062 70.2949 6.07812C70.0449 6.01562 69.7891 5.98438 69.5273 5.98438C69.0859 5.98438 68.6699 6.06445 68.2793 6.22461C67.8926 6.38477 67.5527 6.60938 67.2598 6.89844C66.9707 7.1875 66.7422 7.53711 66.5742 7.94727C66.4062 8.35742 66.3223 8.81055 66.3223 9.30664C66.3223 9.79102 66.4062 10.2363 66.5742 10.6426C66.7422 11.0449 66.9707 11.3926 67.2598 11.6855C67.5527 11.9785 67.8926 12.207 68.2793 12.3711C68.6699 12.5352 69.0859 12.6172 69.5273 12.6172C69.7891 12.6172 70.043 12.5859 70.2891 12.5234C70.5391 12.4648 70.7754 12.377 70.998 12.2598C71.2246 12.1426 71.4336 12 71.625 11.832C71.8203 11.6641 71.9922 11.4746 72.1406 11.2637L70.9688 10.0859C70.9062 10.2266 70.8242 10.3555 70.7227 10.4727C70.625 10.5859 70.5117 10.6836 70.3828 10.7656C70.2578 10.8438 70.123 10.9043 69.9785 10.9473C69.834 10.9902 69.6836 11.0117 69.5273 11.0117C69.4648 11.0117 69.4023 11.0098 69.3398 11.0059ZM69.75 7.61328C69.8242 7.62109 69.8984 7.63867 69.9727 7.66602L68.1094 10.1387C68.0781 10.084 68.0527 10.0215 68.0332 9.95117C68.0137 9.88086 67.9961 9.80859 67.9805 9.73438C67.9688 9.65625 67.959 9.58008 67.9512 9.50586C67.9473 9.43164 67.9453 9.36523 67.9453 9.30664C67.9453 9.04492 67.9863 8.81055 68.0684 8.60352C68.1504 8.39258 68.2617 8.21289 68.4023 8.06445C68.5469 7.91602 68.7148 7.80273 68.9062 7.72461C69.1016 7.64258 69.3086 7.60156 69.5273 7.60156C69.6055 7.60156 69.6797 7.60547 69.75 7.61328ZM74.7598 4.93555C74.8184 4.80664 74.8477 4.66797 74.8477 4.51953C74.8477 4.375 74.8184 4.23828 74.7598 4.10938C74.7051 3.97656 74.6289 3.86328 74.5312 3.76953C74.4336 3.67188 74.3184 3.5957 74.1855 3.54102C74.0566 3.48242 73.918 3.45312 73.7695 3.45312C73.6211 3.45312 73.4805 3.48242 73.3477 3.54102C73.2188 3.5957 73.1055 3.67188 73.0078 3.76953C72.9141 3.86328 72.8379 3.97656 72.7793 4.10938C72.7246 4.23828 72.6973 4.375 72.6973 4.51953C72.6973 4.66797 72.7246 4.80664 72.7793 4.93555C72.8379 5.06445 72.9141 5.17773 73.0078 5.27539C73.1055 5.36914 73.2188 5.44531 73.3477 5.50391C73.4805 5.55859 73.6211 5.58594 73.7695 5.58594C73.918 5.58594 74.0566 5.55859 74.1855 5.50391C74.3184 5.44531 74.4336 5.36914 74.5312 5.27539C74.6289 5.17773 74.7051 5.06445 74.7598 4.93555ZM72.9609 12.5H74.5723V6.22461H72.9609V12.5ZM75.5859 12.5H79.2422C79.5156 12.5 79.7734 12.4492 80.0156 12.3477C80.2578 12.2422 80.4688 12.0996 80.6484 11.9199C80.8281 11.7363 80.9707 11.5254 81.0762 11.2871C81.1816 11.0449 81.2344 10.7852 81.2344 10.5078C81.2344 10.2344 81.1816 9.98242 81.0762 9.75195C80.9707 9.52148 80.8281 9.32422 80.6484 9.16016C80.4688 8.99609 80.2578 8.86914 80.0156 8.7793C79.7734 8.68555 79.5156 8.63867 79.2422 8.63867H77.5781C77.4688 8.63867 77.375 8.59961 77.2969 8.52148C77.2188 8.43945 77.1797 8.3418 77.1797 8.22852C77.1797 8.11914 77.2188 8.02539 77.2969 7.94727C77.375 7.86914 77.4688 7.83008 77.5781 7.83008H80.8184V6.23633H77.5781C77.3008 6.23633 77.041 6.28906 76.7988 6.39453C76.5566 6.49609 76.3457 6.63672 76.166 6.81641C75.9863 6.99609 75.8438 7.20703 75.7383 7.44922C75.6367 7.69141 75.5859 7.95117 75.5859 8.22852C75.5859 8.50586 75.6367 8.76562 75.7383 9.00781C75.8438 9.25 75.9863 9.46289 76.166 9.64648C76.3457 9.82617 76.5566 9.96875 76.7988 10.0742C77.041 10.1797 77.3008 10.2324 77.5781 10.2324H79.2422C79.3516 10.2324 79.4453 10.25 79.5234 10.2852C79.6016 10.3203 79.6406 10.3945 79.6406 10.5078C79.6406 10.6172 79.6016 10.7109 79.5234 10.7891C79.4453 10.8672 79.3516 10.9062 79.2422 10.9062H75.5859V12.5Z" fill="#531499"/>
</g>
<defs>
<clipPath id="clip0_201_8">
<rect width="84" height="15" fill="white" transform="translate(0.5 0.5)"/>
</clipPath>
</defs>
</svg>
