<svg width="91" height="17" viewBox="0 0 91 17" fill="none" xmlns="http://www.w3.org/2000/svg">
<path d="M2.83784 6.25V10.1284H4.77703C5.04279 10.1284 5.29279 10.0788 5.52703 9.97973C5.76126 9.87613 5.96622 9.73649 6.14189 9.56081C6.31757 9.38514 6.45496 9.18018 6.55405 8.94595C6.65766 8.70721 6.70946 8.45495 6.70946 8.18919C6.70946 7.92342 6.65766 7.67342 6.55405 7.43919C6.45496 7.20045 6.31757 6.99324 6.14189 6.81757C5.96622 6.64189 5.76126 6.5045 5.52703 6.40541C5.29279 6.3018 5.04279 6.25 4.77703 6.25H2.83784ZM2.83784 14H0.898649V4.31081H4.77703C5.13288 4.31081 5.47523 4.35811 5.80405 4.4527C6.13288 4.54279 6.43919 4.67342 6.72297 4.84459C7.01126 5.01126 7.27252 5.21396 7.50676 5.4527C7.7455 5.68694 7.9482 5.9482 8.11487 6.23649C8.28604 6.52477 8.41667 6.83333 8.50676 7.16216C8.60135 7.49099 8.64865 7.83333 8.64865 8.18919C8.64865 8.72072 8.5473 9.22297 8.34459 9.69595C8.14189 10.1644 7.86487 10.5743 7.51351 10.9257C7.16216 11.277 6.75 11.5541 6.27703 11.7568C5.80856 11.9595 5.30856 12.0608 4.77703 12.0608H2.83784V14ZM16.5878 10.3176C16.5878 10.8581 16.491 11.3626 16.2973 11.8311C16.1036 12.295 15.8401 12.6982 15.5068 13.0405C15.1734 13.3784 14.7815 13.6464 14.3311 13.8446C13.8851 14.0383 13.4054 14.1351 12.8919 14.1351C12.3829 14.1351 11.9032 14.0383 11.4527 13.8446C11.0068 13.6464 10.6149 13.3784 10.277 13.0405C9.94369 12.6982 9.68018 12.295 9.48649 11.8311C9.29279 11.3626 9.19595 10.8581 9.19595 10.3176C9.19595 9.76802 9.29279 9.25901 9.48649 8.79054C9.68018 8.32207 9.94369 7.91892 10.277 7.58108C10.6149 7.23874 11.0068 6.97072 11.4527 6.77703C11.9032 6.58333 12.3829 6.48649 12.8919 6.48649C13.4054 6.48649 13.8851 6.57883 14.3311 6.76351C14.7815 6.94369 15.1734 7.2027 15.5068 7.54054C15.8401 7.87387 16.1036 8.27703 16.2973 8.75C16.491 9.21847 16.5878 9.74099 16.5878 10.3176ZM14.7297 10.3176C14.7297 10.0203 14.6802 9.75225 14.5811 9.51351C14.4865 9.27027 14.3559 9.06306 14.1892 8.89189C14.0225 8.71622 13.8266 8.58333 13.6014 8.49324C13.3806 8.39865 13.1441 8.35135 12.8919 8.35135C12.6396 8.35135 12.4009 8.39865 12.1757 8.49324C11.955 8.58333 11.7613 8.71622 11.5946 8.89189C11.4324 9.06306 11.3041 9.27027 11.2095 9.51351C11.1149 9.75225 11.0676 10.0203 11.0676 10.3176C11.0676 10.5968 11.1149 10.8559 11.2095 11.0946C11.3041 11.3333 11.4324 11.5405 11.5946 11.7162C11.7613 11.8919 11.955 12.0315 12.1757 12.1351C12.4009 12.2342 12.6396 12.2838 12.8919 12.2838C13.1441 12.2838 13.3806 12.2365 13.6014 12.1419C13.8266 12.0473 14.0225 11.9144 14.1892 11.7432C14.3559 11.5721 14.4865 11.3649 14.5811 11.1216C14.6802 10.8784 14.7297 10.6104 14.7297 10.3176ZM19.4527 14H17.6081V6.76351H18.0541L18.6622 7.62162C18.9595 7.35135 19.2973 7.14414 19.6757 7C20.0541 6.85135 20.4459 6.77703 20.8514 6.77703H22.4797V8.61486H20.8514C20.6577 8.61486 20.4752 8.6509 20.3041 8.72297C20.1329 8.79504 19.9842 8.89414 19.8581 9.02027C19.732 9.1464 19.6329 9.29504 19.5608 9.46622C19.4887 9.63739 19.4527 9.81982 19.4527 10.0135V14ZM26.9662 14C26.5203 14 26.1014 13.9167 25.7095 13.75C25.3176 13.5788 24.973 13.3468 24.6757 13.0541C24.3829 12.7568 24.1509 12.4122 23.9797 12.0203C23.8131 11.6284 23.7297 11.2095 23.7297 10.7635V8.61486H22.8311V6.77703H23.7297V3.88513H25.5676V6.77703H28.3649V8.61486H25.5676V10.7635C25.5676 10.9572 25.6036 11.1396 25.6757 11.3108C25.7477 11.4775 25.8468 11.6239 25.973 11.75C26.0991 11.8761 26.2477 11.9775 26.4189 12.0541C26.5901 12.1261 26.7725 12.1622 26.9662 12.1622H28.3649V14H26.9662ZM36.4122 14H35.9662L35.25 13.0068C35.0743 13.1644 34.8874 13.3131 34.6892 13.4527C34.4955 13.5878 34.2905 13.7072 34.0743 13.8108C33.8581 13.9099 33.6351 13.9887 33.4054 14.0473C33.1802 14.1059 32.9505 14.1351 32.7162 14.1351C32.2072 14.1351 31.7275 14.0495 31.277 13.8784C30.8311 13.7072 30.4392 13.4595 30.1014 13.1351C29.768 12.8063 29.5045 12.4054 29.3108 11.9324C29.1171 11.4595 29.0203 10.9212 29.0203 10.3176C29.0203 9.7545 29.1171 9.23874 29.3108 8.77027C29.5045 8.2973 29.768 7.89189 30.1014 7.55405C30.4392 7.21622 30.8311 6.95495 31.277 6.77027C31.7275 6.58108 32.2072 6.48649 32.7162 6.48649C32.9505 6.48649 33.1824 6.51577 33.4122 6.57432C33.6419 6.63288 33.8649 6.71396 34.0811 6.81757C34.2973 6.92117 34.5023 7.04279 34.6959 7.18243C34.8941 7.32207 35.0788 7.47297 35.25 7.63513L35.9662 6.77703H36.4122V14ZM34.5541 10.3176C34.5541 10.0653 34.5045 9.82207 34.4054 9.58784C34.3108 9.3491 34.1802 9.13964 34.0135 8.95946C33.8468 8.77477 33.6509 8.62838 33.4257 8.52027C33.205 8.40766 32.9685 8.35135 32.7162 8.35135C32.464 8.35135 32.2252 8.39414 32 8.47973C31.7793 8.56532 31.5856 8.69144 31.4189 8.85811C31.2568 9.02477 31.1284 9.23198 31.0338 9.47973C30.9392 9.72297 30.8919 10.0023 30.8919 10.3176C30.8919 10.6329 30.9392 10.9144 31.0338 11.1622C31.1284 11.4054 31.2568 11.6104 31.4189 11.777C31.5856 11.9437 31.7793 12.0698 32 12.1554C32.2252 12.241 32.464 12.2838 32.7162 12.2838C32.9685 12.2838 33.205 12.2297 33.4257 12.1216C33.6509 12.009 33.8468 11.8626 34.0135 11.6824C34.1802 11.4977 34.3108 11.2883 34.4054 11.0541C34.5045 10.8153 34.5541 10.5698 34.5541 10.3176ZM39.6824 14H37.8243V3.88513H39.6824V14Z" fill="#1D1D1D"/>
<path d="M45.8378 14H43.8986V4.31081H45.8378V14ZM56.6486 14H54.8108V9.40541C54.8108 9.27928 54.786 9.15991 54.7365 9.0473C54.6914 8.93468 54.6261 8.83559 54.5405 8.75C54.455 8.66441 54.3559 8.5991 54.2432 8.55405C54.1306 8.5045 54.0113 8.47973 53.8851 8.47973C53.759 8.47973 53.6396 8.5045 53.527 8.55405C53.4189 8.5991 53.3221 8.66441 53.2365 8.75C53.1554 8.83559 53.0901 8.93468 53.0405 9.0473C52.9955 9.15991 52.973 9.27928 52.973 9.40541V14H51.1284V9.40541C51.1284 9.27928 51.1036 9.15991 51.0541 9.0473C51.009 8.93468 50.9437 8.83559 50.8581 8.75C50.7725 8.66441 50.6734 8.5991 50.5608 8.55405C50.4482 8.5045 50.3288 8.47973 50.2027 8.47973C50.0766 8.47973 49.9572 8.5045 49.8446 8.55405C49.7365 8.5991 49.6396 8.66441 49.5541 8.75C49.473 8.83559 49.4077 8.93468 49.3581 9.0473C49.3131 9.15991 49.2905 9.27928 49.2905 9.40541V14H47.4459V6.76351H47.8919L48.3919 7.31757C48.6486 7.10135 48.9302 6.93468 49.2365 6.81757C49.5473 6.69595 49.8694 6.63513 50.2027 6.63513C50.5405 6.63513 50.8694 6.6982 51.1892 6.82432C51.5135 6.95045 51.7973 7.16892 52.0405 7.47973C52.1532 7.32658 52.2815 7.19595 52.4257 7.08784C52.5698 6.97973 52.7207 6.89189 52.8784 6.82432C53.0405 6.75676 53.2072 6.70946 53.3784 6.68243C53.5495 6.6509 53.7185 6.63513 53.8851 6.63513C54.268 6.63513 54.6261 6.70721 54.9595 6.85135C55.2973 6.9955 55.5901 7.19369 55.8378 7.44595C56.0901 7.69369 56.2883 7.98649 56.4324 8.32432C56.5766 8.66216 56.6486 9.02252 56.6486 9.40541V14ZM64.9932 10.3176C64.9932 10.8581 64.8964 11.3626 64.7027 11.8311C64.509 12.295 64.2455 12.6982 63.9122 13.0405C63.5788 13.3784 63.1869 13.6464 62.7365 13.8446C62.2905 14.0383 61.8108 14.1351 61.2973 14.1351C60.7883 14.1351 60.3086 14.0383 59.8581 13.8446C59.4122 13.6464 59.0203 13.3784 58.6824 13.0405C58.3491 12.6982 58.0856 12.295 57.8919 11.8311C57.6982 11.3626 57.6014 10.8581 57.6014 10.3176C57.6014 9.76802 57.6982 9.25901 57.8919 8.79054C58.0856 8.32207 58.3491 7.91892 58.6824 7.58108C59.0203 7.23874 59.4122 6.97072 59.8581 6.77703C60.3086 6.58333 60.7883 6.48649 61.2973 6.48649C61.8108 6.48649 62.2905 6.57883 62.7365 6.76351C63.1869 6.94369 63.5788 7.2027 63.9122 7.54054C64.2455 7.87387 64.509 8.27703 64.7027 8.75C64.8964 9.21847 64.9932 9.74099 64.9932 10.3176ZM63.1351 10.3176C63.1351 10.0203 63.0856 9.75225 62.9865 9.51351C62.8919 9.27027 62.7613 9.06306 62.5946 8.89189C62.4279 8.71622 62.232 8.58333 62.0068 8.49324C61.786 8.39865 61.5495 8.35135 61.2973 8.35135C61.045 8.35135 60.8063 8.39865 60.5811 8.49324C60.3604 8.58333 60.1667 8.71622 60 8.89189C59.8378 9.06306 59.7095 9.27027 59.6149 9.51351C59.5203 9.75225 59.473 10.0203 59.473 10.3176C59.473 10.5968 59.5203 10.8559 59.6149 11.0946C59.7095 11.3333 59.8378 11.5405 60 11.7162C60.1667 11.8919 60.3604 12.0315 60.5811 12.1351C60.8063 12.2342 61.045 12.2838 61.2973 12.2838C61.5495 12.2838 61.786 12.2365 62.0068 12.1419C62.232 12.0473 62.4279 11.9144 62.5946 11.7432C62.7613 11.5721 62.8919 11.3649 62.9865 11.1216C63.0856 10.8784 63.1351 10.6104 63.1351 10.3176ZM61.2703 5.94595L60.5068 4.93919L62.5135 3.06757L63.6216 4.47973L61.2703 5.94595ZM68.0676 14L65.3108 6.76351H67.4122L68.9932 11.277L70.5676 6.76351H72.6757L69.9189 14H68.0676ZM76.0405 12.2297C76.1126 12.2523 76.1847 12.268 76.2568 12.277C76.3288 12.2815 76.4009 12.2838 76.473 12.2838C76.6532 12.2838 76.8266 12.259 76.9932 12.2095C77.1599 12.1599 77.3153 12.0901 77.4595 12C77.6081 11.9054 77.7387 11.7928 77.8514 11.6622C77.9685 11.527 78.0631 11.3784 78.1351 11.2162L79.4865 12.5743C79.3153 12.8176 79.1171 13.036 78.8919 13.2297C78.6712 13.4234 78.4302 13.5878 78.1689 13.723C77.9122 13.8581 77.6396 13.9595 77.3514 14.027C77.0676 14.0991 76.7748 14.1351 76.473 14.1351C75.964 14.1351 75.4842 14.0405 75.0338 13.8514C74.5878 13.6622 74.1959 13.3986 73.8581 13.0608C73.5248 12.723 73.2613 12.3221 73.0676 11.8581C72.8739 11.3896 72.777 10.8761 72.777 10.3176C72.777 9.7455 72.8739 9.22297 73.0676 8.75C73.2613 8.27703 73.5248 7.87387 73.8581 7.54054C74.1959 7.20721 74.5878 6.9482 75.0338 6.76351C75.4842 6.57883 75.964 6.48649 76.473 6.48649C76.7748 6.48649 77.0698 6.52252 77.3581 6.59459C77.6464 6.66667 77.9189 6.77027 78.1757 6.90541C78.4369 7.04054 78.6802 7.20721 78.9054 7.40541C79.1306 7.5991 79.3288 7.81757 79.5 8.06081L76.0405 12.2297ZM76.9865 8.42568C76.9009 8.39414 76.8153 8.37387 76.7297 8.36486C76.6486 8.35586 76.5631 8.35135 76.473 8.35135C76.2207 8.35135 75.982 8.39865 75.7568 8.49324C75.536 8.58333 75.3423 8.71396 75.1757 8.88514C75.0135 9.05631 74.8851 9.26351 74.7905 9.50676C74.6959 9.7455 74.6486 10.0158 74.6486 10.3176C74.6486 10.3851 74.6509 10.4617 74.6554 10.5473C74.6644 10.6329 74.6757 10.7207 74.6892 10.8108C74.7072 10.8964 74.7275 10.9797 74.75 11.0608C74.7725 11.1419 74.8018 11.214 74.8378 11.277L76.9865 8.42568ZM82.6081 4.7973C82.6081 4.96847 82.5743 5.12838 82.5068 5.27703C82.4437 5.42568 82.3559 5.55631 82.2432 5.66892C82.1306 5.77703 81.9977 5.86486 81.8446 5.93243C81.6959 5.9955 81.536 6.02703 81.3649 6.02703C81.1937 6.02703 81.0315 5.9955 80.8784 5.93243C80.7297 5.86486 80.5991 5.77703 80.4865 5.66892C80.3784 5.55631 80.2905 5.42568 80.223 5.27703C80.1599 5.12838 80.1284 4.96847 80.1284 4.7973C80.1284 4.63063 80.1599 4.47297 80.223 4.32432C80.2905 4.17117 80.3784 4.04054 80.4865 3.93243C80.5991 3.81982 80.7297 3.73198 80.8784 3.66892C81.0315 3.60135 81.1937 3.56757 81.3649 3.56757C81.536 3.56757 81.6959 3.60135 81.8446 3.66892C81.9977 3.73198 82.1306 3.81982 82.2432 3.93243C82.3559 4.04054 82.4437 4.17117 82.5068 4.32432C82.5743 4.47297 82.6081 4.63063 82.6081 4.7973ZM82.2905 14H80.4324V6.76351H82.2905V14ZM87.6757 14H83.4595V12.1622H87.6757C87.8018 12.1622 87.9099 12.1171 88 12.027C88.0901 11.9369 88.1351 11.8288 88.1351 11.7027C88.1351 11.5721 88.0901 11.4865 88 11.4459C87.9099 11.4054 87.8018 11.3851 87.6757 11.3851H85.7568C85.4369 11.3851 85.1374 11.3243 84.8581 11.2027C84.5788 11.0811 84.3356 10.9167 84.1284 10.7095C83.9212 10.4977 83.7568 10.2523 83.6351 9.97297C83.518 9.69369 83.4595 9.39414 83.4595 9.07432C83.4595 8.7545 83.518 8.45495 83.6351 8.17568C83.7568 7.8964 83.9212 7.65315 84.1284 7.44595C84.3356 7.23874 84.5788 7.07658 84.8581 6.95946C85.1374 6.83784 85.4369 6.77703 85.7568 6.77703H89.4932V8.61486H85.7568C85.6306 8.61486 85.5225 8.65991 85.4324 8.75C85.3423 8.84009 85.2973 8.9482 85.2973 9.07432C85.2973 9.20495 85.3423 9.31757 85.4324 9.41216C85.5225 9.50225 85.6306 9.5473 85.7568 9.5473H87.6757C87.991 9.5473 88.2883 9.60135 88.5676 9.70946C88.8468 9.81306 89.0901 9.95946 89.2973 10.1486C89.5045 10.3378 89.6689 10.5653 89.7905 10.8311C89.9122 11.0968 89.973 11.3874 89.973 11.7027C89.973 12.0225 89.9122 12.3221 89.7905 12.6014C89.6689 12.8761 89.5045 13.1194 89.2973 13.3311C89.0901 13.5383 88.8468 13.7027 88.5676 13.8243C88.2883 13.9414 87.991 14 87.6757 14Z" fill="#531499"/>
</svg>
