<svg width="84" height="15" viewBox="0 0 84 15" fill="none" xmlns="http://www.w3.org/2000/svg">
<path d="M2.46094 5.2793V8.64258H4.14258C4.37305 8.64258 4.58984 8.59961 4.79297 8.51367C4.99609 8.42383 5.17383 8.30273 5.32617 8.15039C5.47852 7.99805 5.59766 7.82031 5.68359 7.61719C5.77344 7.41016 5.81836 7.19141 5.81836 6.96094C5.81836 6.73047 5.77344 6.51367 5.68359 6.31055C5.59766 6.10352 5.47852 5.92383 5.32617 5.77148C5.17383 5.61914 4.99609 5.5 4.79297 5.41406C4.58984 5.32422 4.37305 5.2793 4.14258 5.2793H2.46094ZM2.46094 12H0.779297V3.59766H4.14258C4.45117 3.59766 4.74805 3.63867 5.0332 3.7207C5.31836 3.79883 5.58398 3.91211 5.83008 4.06055C6.08008 4.20508 6.30664 4.38086 6.50977 4.58789C6.7168 4.79102 6.89258 5.01758 7.03711 5.26758C7.18555 5.51758 7.29883 5.78516 7.37695 6.07031C7.45898 6.35547 7.5 6.65234 7.5 6.96094C7.5 7.42188 7.41211 7.85742 7.23633 8.26758C7.06055 8.67383 6.82031 9.0293 6.51562 9.33398C6.21094 9.63867 5.85352 9.87891 5.44336 10.0547C5.03711 10.2305 4.60352 10.3184 4.14258 10.3184H2.46094V12ZM14.3848 8.80664C14.3848 9.27539 14.3008 9.71289 14.1328 10.1191C13.9648 10.5215 13.7363 10.8711 13.4473 11.168C13.1582 11.4609 12.8184 11.6934 12.4277 11.8652C12.041 12.0332 11.625 12.1172 11.1797 12.1172C10.7383 12.1172 10.3223 12.0332 9.93164 11.8652C9.54492 11.6934 9.20508 11.4609 8.91211 11.168C8.62305 10.8711 8.39453 10.5215 8.22656 10.1191C8.05859 9.71289 7.97461 9.27539 7.97461 8.80664C7.97461 8.33008 8.05859 7.88867 8.22656 7.48242C8.39453 7.07617 8.62305 6.72656 8.91211 6.43359C9.20508 6.13672 9.54492 5.9043 9.93164 5.73633C10.3223 5.56836 10.7383 5.48438 11.1797 5.48438C11.625 5.48438 12.041 5.56445 12.4277 5.72461C12.8184 5.88086 13.1582 6.10547 13.4473 6.39844C13.7363 6.6875 13.9648 7.03711 14.1328 7.44727C14.3008 7.85352 14.3848 8.30664 14.3848 8.80664ZM12.7734 8.80664C12.7734 8.54883 12.7305 8.31641 12.6445 8.10938C12.5625 7.89844 12.4492 7.71875 12.3047 7.57031C12.1602 7.41797 11.9902 7.30273 11.7949 7.22461C11.6035 7.14258 11.3984 7.10156 11.1797 7.10156C10.9609 7.10156 10.7539 7.14258 10.5586 7.22461C10.3672 7.30273 10.1992 7.41797 10.0547 7.57031C9.91406 7.71875 9.80273 7.89844 9.7207 8.10938C9.63867 8.31641 9.59766 8.54883 9.59766 8.80664C9.59766 9.04883 9.63867 9.27344 9.7207 9.48047C9.80273 9.6875 9.91406 9.86719 10.0547 10.0195C10.1992 10.1719 10.3672 10.293 10.5586 10.3828C10.7539 10.4688 10.9609 10.5117 11.1797 10.5117C11.3984 10.5117 11.6035 10.4707 11.7949 10.3887C11.9902 10.3066 12.1602 10.1914 12.3047 10.043C12.4492 9.89453 12.5625 9.71484 12.6445 9.50391C12.7305 9.29297 12.7734 9.06055 12.7734 8.80664ZM16.8691 12H15.2695V5.72461H15.6562L16.1836 6.46875C16.4414 6.23438 16.7344 6.05469 17.0625 5.92969C17.3906 5.80078 17.7305 5.73633 18.082 5.73633H19.4941V7.33008H18.082C17.9141 7.33008 17.7559 7.36133 17.6074 7.42383C17.459 7.48633 17.3301 7.57227 17.2207 7.68164C17.1113 7.79102 17.0254 7.91992 16.9629 8.06836C16.9004 8.2168 16.8691 8.375 16.8691 8.54297V12ZM23.3848 12C22.998 12 22.6348 11.9277 22.2949 11.7832C21.9551 11.6348 21.6562 11.4336 21.3984 11.1797C21.1445 10.9219 20.9434 10.623 20.7949 10.2832C20.6504 9.94336 20.5781 9.58008 20.5781 9.19336V7.33008H19.7988V5.73633H20.5781V3.22852H22.1719V5.73633H24.5977V7.33008H22.1719V9.19336C22.1719 9.36133 22.2031 9.51953 22.2656 9.66797C22.3281 9.8125 22.4141 9.93945 22.5234 10.0488C22.6328 10.1582 22.7617 10.2461 22.9102 10.3125C23.0586 10.375 23.2168 10.4062 23.3848 10.4062H24.5977V12H23.3848ZM31.5762 12H31.1895L30.5684 11.1387C30.416 11.2754 30.2539 11.4043 30.082 11.5254C29.9141 11.6426 29.7363 11.7461 29.5488 11.8359C29.3613 11.9219 29.168 11.9902 28.9688 12.041C28.7734 12.0918 28.5742 12.1172 28.3711 12.1172C27.9297 12.1172 27.5137 12.043 27.123 11.8945C26.7363 11.7461 26.3965 11.5312 26.1035 11.25C25.8145 10.9648 25.5859 10.6172 25.418 10.207C25.25 9.79688 25.166 9.33008 25.166 8.80664C25.166 8.31836 25.25 7.87109 25.418 7.46484C25.5859 7.05469 25.8145 6.70312 26.1035 6.41016C26.3965 6.11719 26.7363 5.89062 27.123 5.73047C27.5137 5.56641 27.9297 5.48438 28.3711 5.48438C28.5742 5.48438 28.7754 5.50977 28.9746 5.56055C29.1738 5.61133 29.3672 5.68164 29.5547 5.77148C29.7422 5.86133 29.9199 5.9668 30.0879 6.08789C30.2598 6.20898 30.4199 6.33984 30.5684 6.48047L31.1895 5.73633H31.5762V12ZM29.9648 8.80664C29.9648 8.58789 29.9219 8.37695 29.8359 8.17383C29.7539 7.9668 29.6406 7.78516 29.4961 7.62891C29.3516 7.46875 29.1816 7.3418 28.9863 7.24805C28.7949 7.15039 28.5898 7.10156 28.3711 7.10156C28.1523 7.10156 27.9453 7.13867 27.75 7.21289C27.5586 7.28711 27.3906 7.39648 27.2461 7.54102C27.1055 7.68555 26.9941 7.86523 26.9121 8.08008C26.8301 8.29102 26.7891 8.5332 26.7891 8.80664C26.7891 9.08008 26.8301 9.32422 26.9121 9.53906C26.9941 9.75 27.1055 9.92773 27.2461 10.0723C27.3906 10.2168 27.5586 10.3262 27.75 10.4004C27.9453 10.4746 28.1523 10.5117 28.3711 10.5117C28.5898 10.5117 28.7949 10.4648 28.9863 10.3711C29.1816 10.2734 29.3516 10.1465 29.4961 9.99023C29.6406 9.83008 29.7539 9.64844 29.8359 9.44531C29.9219 9.23828 29.9648 9.02539 29.9648 8.80664ZM34.4121 12H32.8008V3.22852H34.4121V12Z" fill="white"/>
<path fill-rule="evenodd" clip-rule="evenodd" d="M40 0C38.8954 0 38 0.89543 38 2V13C38 14.1046 38.8954 15 40 15H78C81.3137 15 84 12.3137 84 9V2C84 0.895431 83.1046 0 82 0H40ZM40.7793 12H42.4609V3.59766H40.7793V12ZM50.2422 12H51.8359V8.01562C51.8359 7.68359 51.7734 7.37109 51.6484 7.07812C51.5234 6.78516 51.3516 6.53125 51.1328 6.31641C50.918 6.09766 50.6641 5.92578 50.3711 5.80078C50.082 5.67578 49.7715 5.61328 49.4395 5.61328C49.2949 5.61328 49.1484 5.62695 49 5.6543C48.8516 5.67773 48.707 5.71875 48.5664 5.77734C48.4297 5.83594 48.2988 5.91211 48.1738 6.00586C48.0488 6.09961 47.9375 6.21289 47.8398 6.3457C47.6289 6.07617 47.3828 5.88672 47.1016 5.77734C46.8242 5.66797 46.5391 5.61328 46.2461 5.61328C45.957 5.61328 45.6777 5.66602 45.4082 5.77148C45.1426 5.87305 44.8984 6.01758 44.6758 6.20508L44.2422 5.72461H43.8555V12H45.4551V8.01562C45.4551 7.90625 45.4746 7.80273 45.5137 7.70508C45.5566 7.60742 45.6133 7.52148 45.6836 7.44727C45.7578 7.37305 45.8418 7.31641 45.9355 7.27734C46.0332 7.23438 46.1367 7.21289 46.2461 7.21289C46.3555 7.21289 46.459 7.23438 46.5566 7.27734C46.6543 7.31641 46.7402 7.37305 46.8145 7.44727C46.8887 7.52148 46.9453 7.60742 46.9844 7.70508C47.0273 7.80273 47.0488 7.90625 47.0488 8.01562V12H48.6484V8.01562C48.6484 7.90625 48.668 7.80273 48.707 7.70508C48.75 7.60742 48.8066 7.52148 48.877 7.44727C48.9512 7.37305 49.0352 7.31641 49.1289 7.27734C49.2266 7.23438 49.3301 7.21289 49.4395 7.21289C49.5488 7.21289 49.6523 7.23438 49.75 7.27734C49.8477 7.31641 49.9336 7.37305 50.0078 7.44727C50.082 7.52148 50.1387 7.60742 50.1777 7.70508C50.2207 7.80273 50.2422 7.90625 50.2422 8.01562V12ZM58.8203 10.1191C58.9883 9.71289 59.0723 9.27539 59.0723 8.80664C59.0723 8.30664 58.9883 7.85352 58.8203 7.44727C58.6523 7.03711 58.4238 6.6875 58.1348 6.39844C57.8457 6.10547 57.5059 5.88086 57.1152 5.72461C56.7285 5.56445 56.3125 5.48438 55.8672 5.48438C55.4258 5.48438 55.0098 5.56836 54.6191 5.73633C54.2324 5.9043 53.8926 6.13672 53.5996 6.43359C53.3105 6.72656 53.082 7.07617 52.9141 7.48242C52.7461 7.88867 52.6621 8.33008 52.6621 8.80664C52.6621 9.27539 52.7461 9.71289 52.9141 10.1191C53.082 10.5215 53.3105 10.8711 53.5996 11.168C53.8926 11.4609 54.2324 11.6934 54.6191 11.8652C55.0098 12.0332 55.4258 12.1172 55.8672 12.1172C56.3125 12.1172 56.7285 12.0332 57.1152 11.8652C57.5059 11.6934 57.8457 11.4609 58.1348 11.168C58.4238 10.8711 58.6523 10.5215 58.8203 10.1191ZM57.332 8.10938C57.418 8.31641 57.4609 8.54883 57.4609 8.80664C57.4609 9.06055 57.418 9.29297 57.332 9.50391C57.25 9.71484 57.1367 9.89453 56.9922 10.043C56.8477 10.1914 56.6777 10.3066 56.4824 10.3887C56.291 10.4707 56.0859 10.5117 55.8672 10.5117C55.6484 10.5117 55.4414 10.4688 55.2461 10.3828C55.0547 10.293 54.8867 10.1719 54.7422 10.0195C54.6016 9.86719 54.4902 9.6875 54.4082 9.48047C54.3262 9.27344 54.2852 9.04883 54.2852 8.80664C54.2852 8.54883 54.3262 8.31641 54.4082 8.10938C54.4902 7.89844 54.6016 7.71875 54.7422 7.57031C54.8867 7.41797 55.0547 7.30273 55.2461 7.22461C55.4414 7.14258 55.6484 7.10156 55.8672 7.10156C56.0859 7.10156 56.291 7.14258 56.4824 7.22461C56.6777 7.30273 56.8477 7.41797 56.9922 7.57031C57.1367 7.71875 57.25 7.89844 57.332 8.10938ZM55.1816 4.14258L55.8438 5.01562L57.8828 3.74414L56.9219 2.51953L55.1816 4.14258ZM59.3477 5.72461L61.7383 12H63.3438L65.7344 5.72461H63.9062L62.541 9.63867L61.1699 5.72461H59.3477ZM68.8398 10.5059C68.7773 10.498 68.7148 10.4844 68.6523 10.4648L71.6523 6.84961C71.5039 6.63867 71.332 6.44922 71.1367 6.28125C70.9414 6.10938 70.7305 5.96484 70.5039 5.84766C70.2812 5.73047 70.0449 5.64062 69.7949 5.57812C69.5449 5.51562 69.2891 5.48438 69.0273 5.48438C68.5859 5.48438 68.1699 5.56445 67.7793 5.72461C67.3926 5.88477 67.0527 6.10938 66.7598 6.39844C66.4707 6.6875 66.2422 7.03711 66.0742 7.44727C65.9062 7.85742 65.8223 8.31055 65.8223 8.80664C65.8223 9.29102 65.9062 9.73633 66.0742 10.1426C66.2422 10.5449 66.4707 10.8926 66.7598 11.1855C67.0527 11.4785 67.3926 11.707 67.7793 11.8711C68.1699 12.0352 68.5859 12.1172 69.0273 12.1172C69.2891 12.1172 69.543 12.0859 69.7891 12.0234C70.0391 11.9648 70.2754 11.877 70.498 11.7598C70.7246 11.6426 70.9336 11.5 71.125 11.332C71.3203 11.1641 71.4922 10.9746 71.6406 10.7637L70.4688 9.58594C70.4062 9.72656 70.3242 9.85547 70.2227 9.97266C70.125 10.0859 70.0117 10.1836 69.8828 10.2656C69.7578 10.3438 69.623 10.4043 69.4785 10.4473C69.334 10.4902 69.1836 10.5117 69.0273 10.5117C68.9648 10.5117 68.9023 10.5098 68.8398 10.5059ZM69.25 7.11328C69.3242 7.12109 69.3984 7.13867 69.4727 7.16602L67.6094 9.63867C67.5781 9.58398 67.5527 9.52148 67.5332 9.45117C67.5137 9.38086 67.4961 9.30859 67.4805 9.23438C67.4688 9.15625 67.459 9.08008 67.4512 9.00586C67.4473 8.93164 67.4453 8.86523 67.4453 8.80664C67.4453 8.54492 67.4863 8.31055 67.5684 8.10352C67.6504 7.89258 67.7617 7.71289 67.9023 7.56445C68.0469 7.41602 68.2148 7.30273 68.4062 7.22461C68.6016 7.14258 68.8086 7.10156 69.0273 7.10156C69.1055 7.10156 69.1797 7.10547 69.25 7.11328ZM74.2598 4.43555C74.3184 4.30664 74.3477 4.16797 74.3477 4.01953C74.3477 3.875 74.3184 3.73828 74.2598 3.60938C74.2051 3.47656 74.1289 3.36328 74.0312 3.26953C73.9336 3.17188 73.8184 3.0957 73.6855 3.04102C73.5566 2.98242 73.418 2.95312 73.2695 2.95312C73.1211 2.95312 72.9805 2.98242 72.8477 3.04102C72.7188 3.0957 72.6055 3.17188 72.5078 3.26953C72.4141 3.36328 72.3379 3.47656 72.2793 3.60938C72.2246 3.73828 72.1973 3.875 72.1973 4.01953C72.1973 4.16797 72.2246 4.30664 72.2793 4.43555C72.3379 4.56445 72.4141 4.67773 72.5078 4.77539C72.6055 4.86914 72.7188 4.94531 72.8477 5.00391C72.9805 5.05859 73.1211 5.08594 73.2695 5.08594C73.418 5.08594 73.5566 5.05859 73.6855 5.00391C73.8184 4.94531 73.9336 4.86914 74.0312 4.77539C74.1289 4.67773 74.2051 4.56445 74.2598 4.43555ZM72.4609 12H74.0723V5.72461H72.4609V12ZM75.0859 12H78.7422C79.0156 12 79.2734 11.9492 79.5156 11.8477C79.7578 11.7422 79.9688 11.5996 80.1484 11.4199C80.3281 11.2363 80.4707 11.0254 80.5762 10.7871C80.6816 10.5449 80.7344 10.2852 80.7344 10.0078C80.7344 9.73438 80.6816 9.48242 80.5762 9.25195C80.4707 9.02148 80.3281 8.82422 80.1484 8.66016C79.9688 8.49609 79.7578 8.36914 79.5156 8.2793C79.2734 8.18555 79.0156 8.13867 78.7422 8.13867H77.0781C76.9688 8.13867 76.875 8.09961 76.7969 8.02148C76.7188 7.93945 76.6797 7.8418 76.6797 7.72852C76.6797 7.61914 76.7188 7.52539 76.7969 7.44727C76.875 7.36914 76.9688 7.33008 77.0781 7.33008H80.3184V5.73633H77.0781C76.8008 5.73633 76.541 5.78906 76.2988 5.89453C76.0566 5.99609 75.8457 6.13672 75.666 6.31641C75.4863 6.49609 75.3438 6.70703 75.2383 6.94922C75.1367 7.19141 75.0859 7.45117 75.0859 7.72852C75.0859 8.00586 75.1367 8.26562 75.2383 8.50781C75.3438 8.75 75.4863 8.96289 75.666 9.14648C75.8457 9.32617 76.0566 9.46875 76.2988 9.57422C76.541 9.67969 76.8008 9.73242 77.0781 9.73242H78.7422C78.8516 9.73242 78.9453 9.75 79.0234 9.78516C79.1016 9.82031 79.1406 9.89453 79.1406 10.0078C79.1406 10.1172 79.1016 10.2109 79.0234 10.2891C78.9453 10.3672 78.8516 10.4062 78.7422 10.4062H75.0859V12Z" fill="white"/>
</svg>
